<svg width="135" height="129" viewBox="0 0 135 129" fill="none" xmlns="http://www.w3.org/2000/svg">
<path d="M30.7414 125.638H100.095M65.418 125.638C81.9723 125.638 97.8486 119.062 109.554 107.356C121.26 95.6507 127.836 79.7744 127.836 63.2201H3C3 79.7744 9.57617 95.6507 21.2818 107.356C32.9875 119.062 48.8637 125.638 65.418 125.638Z" stroke="#CC4814" stroke-width="5" stroke-linecap="round" stroke-linejoin="round"/>
<path d="M43 91C43 91 48.6037 95.5 57 95.5C65.3963 95.5 71 91 71 91" stroke="#CC4814" stroke-width="6" stroke-linecap="round"/>
<path d="M61.1185 63.2201C56.9182 63.2592 52.8584 61.7088 49.7534 58.8799C46.6484 56.051 44.7277 52.1527 44.3767 47.9669C44.0257 43.7811 45.2703 39.6174 47.8608 36.3108C50.4513 33.0043 54.1962 30.7994 58.3443 30.1385C57.6802 27.1995 57.8263 24.1353 58.767 21.2728C59.7078 18.4104 61.4079 15.8569 63.6861 13.8849C65.9642 11.9129 68.7349 10.5962 71.7027 10.0754C74.6704 9.5546 77.7239 9.84913 80.5374 10.9276C81.7693 8.98823 83.3895 7.32491 85.2958 6.04235C87.202 4.7598 89.3532 3.88579 91.6138 3.47536C93.8745 3.06493 96.1956 3.12696 98.4311 3.65755C100.667 4.18814 102.768 5.1758 104.603 6.55834C107.804 4.04237 111.816 2.78695 115.881 3.02961C119.945 3.27227 123.779 4.99618 126.658 7.87517C129.537 10.7542 131.261 14.5885 131.504 18.6528C131.746 22.7171 130.491 26.7293 127.975 29.9304C129.541 32.0106 130.597 34.429 131.059 36.9915C131.52 39.554 131.374 42.189 130.632 44.6847C129.89 47.1805 128.573 49.4673 126.787 51.3615C125 53.2557 122.794 54.7044 120.346 55.5912C120.979 58.0874 121.05 60.693 120.554 63.2201M72.3537 63.2201L100.095 35.4787" stroke="#CC4814" stroke-width="5" stroke-linecap="round" stroke-linejoin="round"/>
<path d="M57.789 30.2772C53.9849 26.2219 49.0473 23.4066 43.6199 22.1983C38.1925 20.9901 32.527 21.4449 27.3618 23.5035C22.1966 25.5621 17.7714 29.1289 14.663 33.7392C11.5545 38.3494 9.90699 43.7891 9.93517 49.3493C9.93517 54.4121 11.3222 59.1282 13.6803 63.22" stroke="#CC4814" stroke-width="5" stroke-linecap="round" stroke-linejoin="round"/>
<circle cx="46.5" cy="77.5" r="5.5" fill="#CC4814"/>
<circle cx="67.5" cy="77.5" r="5.5" fill="#CC4814"/>
<path d="M43 91C43 91 48.6037 95.5 57 95.5C65.3963 95.5 71 91 71 91" stroke="#CC4814" stroke-width="3" stroke-linecap="round"/>
</svg>
