<svg width="133" height="134" viewBox="0 0 133 134" fill="none" xmlns="http://www.w3.org/2000/svg">
<g opacity="0.49">
<path d="M120.757 45.2837C120.757 42.5049 123.009 40.2522 125.788 40.2522C128.567 40.2522 130.82 42.5049 130.82 45.2837C130.82 48.0625 128.567 50.3152 125.788 50.3152C123.009 50.3152 120.757 48.0625 120.757 45.2837ZM120.757 25.1576C120.757 22.3788 123.009 20.1261 125.788 20.1261C128.567 20.1261 130.82 22.3788 130.82 25.1576C130.82 27.9364 128.567 30.1891 125.788 30.1891C123.009 30.1891 120.757 27.9364 120.757 25.1576ZM120.757 5.03152C120.757 2.25269 123.009 0 125.788 0C128.567 0 130.82 2.25269 130.82 5.03152C130.82 7.81036 128.567 10.063 125.788 10.063C123.009 10.063 120.757 7.81036 120.757 5.03152ZM100.63 5.03152C100.63 2.25269 102.883 0 105.662 0C108.441 0 110.693 2.25269 110.693 5.03152C110.693 7.81036 108.441 10.063 105.662 10.063C102.883 10.063 100.63 7.81036 100.63 5.03152ZM80.5043 5.03152C80.5043 2.25269 82.757 0 85.5359 0C88.3147 0 90.5674 2.25269 90.5674 5.03152C90.5674 7.81036 88.3147 10.063 85.5359 10.063C82.757 10.063 80.5043 7.81036 80.5043 5.03152ZM60.3783 5.03152C60.3783 2.25269 62.631 0 65.4098 0C68.1886 0 70.4413 2.25269 70.4413 5.03152C70.4413 7.81036 68.1886 10.063 65.4098 10.063C62.631 10.063 60.3783 7.81036 60.3783 5.03152ZM40.2522 5.03152C40.2522 2.25269 42.5049 0 45.2837 0C48.0625 0 50.3152 2.25269 50.3152 5.03152C50.3152 7.81036 48.0625 10.063 45.2837 10.063C42.5049 10.063 40.2522 7.81036 40.2522 5.03152ZM20.1261 5.03152C20.1261 2.25269 22.3788 0 25.1576 0C27.9364 0 30.1891 2.25269 30.1891 5.03152C30.1891 7.81036 27.9364 10.063 25.1576 10.063C22.3788 10.063 20.1261 7.81036 20.1261 5.03152ZM0 5.03152C0 2.25269 2.25269 0 5.03152 0C7.81036 0 10.063 2.25269 10.063 5.03152C10.063 7.81036 7.81036 10.063 5.03152 10.063C2.25269 10.063 0 7.81036 0 5.03152ZM0 25.1576C0 22.3788 2.25269 20.1261 5.03152 20.1261C7.81036 20.1261 10.063 22.3788 10.063 25.1576C10.063 27.9364 7.81036 30.1891 5.03152 30.1891C2.25269 30.1891 0 27.9364 0 25.1576ZM0 45.2837C0 42.5049 2.25269 40.2522 5.03152 40.2522C7.81036 40.2522 10.063 42.5049 10.063 45.2837C10.063 48.0625 7.81036 50.3152 5.03152 50.3152C2.25269 50.3152 0 48.0625 0 45.2837ZM0 65.4098C0 62.631 2.25269 60.3783 5.03152 60.3783C7.81036 60.3783 10.063 62.631 10.063 65.4098C10.063 68.1886 7.81036 70.4413 5.03152 70.4413C2.25269 70.4413 0 68.1886 0 65.4098ZM0 85.5359C0 82.757 2.25269 80.5043 5.03152 80.5043C7.81036 80.5043 10.063 82.757 10.063 85.5359C10.063 88.3147 7.81036 90.5674 5.03152 90.5674C2.25269 90.5674 0 88.3147 0 85.5359ZM0 105.662C0 102.883 2.25269 100.63 5.03152 100.63C7.81036 100.63 10.063 102.883 10.063 105.662C10.063 108.441 7.81036 110.693 5.03152 110.693C2.25269 110.693 0 108.441 0 105.662ZM0 125.788C0 123.009 2.25269 120.757 5.03152 120.757C7.81036 120.757 10.063 123.009 10.063 125.788C10.063 128.567 7.81036 130.82 5.03152 130.82C2.25269 130.82 0 128.567 0 125.788Z" fill="#CC4814"/>
<path d="M107.32 120.315C110.157 120.315 112.456 118.015 112.456 115.179C112.456 112.342 110.157 110.043 107.32 110.043C104.483 110.043 102.184 112.342 102.184 115.179C102.184 118.015 104.483 120.315 107.32 120.315Z" fill="#CC4814"/>
<path d="M127.864 99.7709H119.441L118.047 95.5774C117.706 94.5543 117.052 93.6645 116.177 93.0343C115.302 92.4042 114.251 92.0657 113.172 92.0669H101.467C100.389 92.0659 99.3374 92.4047 98.4625 93.0354C97.5875 93.666 96.9335 94.5564 96.5934 95.5799L95.199 99.7709H86.7759C85.4142 99.7723 84.1086 100.314 83.1457 101.277C82.1828 102.24 81.6413 103.545 81.6399 104.907V128.019C81.6413 129.381 82.1828 130.686 83.1457 131.649C84.1086 132.612 85.4142 133.154 86.7759 133.155H127.864C129.226 133.154 130.531 132.612 131.494 131.649C132.457 130.686 132.999 129.381 133 128.019V104.907C132.999 103.545 132.457 102.24 131.494 101.277C130.531 100.314 129.226 99.7723 127.864 99.7709ZM107.32 125.451C105.288 125.451 103.302 124.849 101.613 123.72C99.9239 122.591 98.6073 120.987 97.8298 119.11C97.0524 117.233 96.849 115.168 97.2453 113.175C97.6417 111.182 98.62 109.352 100.057 107.916C101.493 106.479 103.323 105.501 105.316 105.104C107.309 104.708 109.374 104.911 111.251 105.689C113.128 106.466 114.732 107.783 115.861 109.472C116.99 111.161 117.592 113.147 117.592 115.179C117.589 117.902 116.505 120.513 114.58 122.439C112.654 124.364 110.043 125.448 107.32 125.451Z" fill="#CC4814"/>
<rect x="19.623" y="120.645" width="10.9016" height="10.1749" rx="5.08743" fill="#CC4814"/>
<rect x="130.82" y="61.0491" width="10.1749" height="10.1749" rx="5.08743" transform="rotate(90 130.82 61.0491)" fill="#CC4814"/>
<rect x="40.6995" y="120.645" width="10.9016" height="10.1749" rx="5.08743" fill="#CC4814"/>
<rect x="130.82" y="81.3988" width="10.9016" height="10.1749" rx="5.08743" transform="rotate(90 130.82 81.3988)" fill="#CC4814"/>
<rect x="61.0492" y="120.645" width="10.1749" height="10.1749" rx="5.08743" fill="#CC4814"/>
</g>
<path d="M42.6317 77.662C30.5961 73.8012 29.0256 61.1734 32.1854 54.4284C36.2381 41.0195 48.915 30.8248 67.5954 35.8622C108.307 46.8405 98.8846 73.7047 87.6497 85.5313C79.7351 93.8627 70.7011 92.2566 62.5811 84.6293C57.0103 79.3965 46.9341 79.0422 42.6317 77.662Z" stroke="black" stroke-width="1.78586"/>
<path d="M44.4045 76.3002C33.3339 72.7473 31.8853 61.1396 34.7891 54.9408C38.512 42.6169 50.1677 33.2504 67.35 37.8869C104.797 47.9916 96.1397 72.6815 85.8107 83.5485C78.5344 91.2039 70.2251 89.7246 62.7546 82.711C57.6293 77.8992 48.362 77.5702 44.4045 76.3002Z" fill="white"/>
<path d="M65.0733 47.4688C60.278 42.5282 52.4277 42.3502 47.5391 47.0951C42.6505 51.8401 42.5942 59.6921 47.3895 64.6327C49.7908 67.1067 52.6262 68.1278 55.488 67.9074C58.3327 67.6883 61.141 66.2487 63.5391 63.9211C65.9364 61.5943 67.5399 58.7529 67.9324 55.843C68.3275 52.9144 67.488 49.9566 65.0733 47.4688Z" fill="#FFCA41" stroke="black" stroke-width="1.19058"/>
<path d="M56.1154 49.204C55.7182 48.1238 55.0823 47.36 54.2444 46.9775C53.4071 46.5952 52.4181 46.6165 51.3598 47.0056C49.1878 47.8044 48.0967 50.2435 48.9066 52.4459C49.1017 52.9765 49.3195 53.3791 49.5852 53.6607C49.8594 53.9513 50.1762 54.1036 50.5383 54.1436C50.8869 54.1821 51.2617 54.1145 51.6576 54.0015C52.0193 53.8983 52.4247 53.749 52.8707 53.5847C52.9139 53.5688 52.9576 53.5527 53.0016 53.5365C54.0197 53.1621 54.9991 52.6676 55.6261 51.9741C55.9436 51.6229 56.1752 51.2158 56.2704 50.7453C56.3658 50.2743 56.3202 49.7607 56.1154 49.204Z" fill="#FFDC81" stroke="black" stroke-width="0.595288"/>
</svg>
