<svg width="152" height="129" viewBox="0 0 152 129" fill="none" xmlns="http://www.w3.org/2000/svg">
<path d="M136.727 0L136.719 123.113C138.923 126.74 141.203 128.134 143.116 128.125C145.013 128.116 147.269 126.705 149.43 123.186L143.528 60.3052L143.459 59.5394L143.932 58.9289C150.714 50.2263 153.084 35.1911 151.149 22.4741C150.182 16.1152 148.157 10.3599 145.321 6.29126C142.943 2.87929 140.106 0.702766 136.727 0ZM17.451 0.00128177L17.4459 21.5029L13.4228 21.4978V0.00256231H8.84071L8.84135 21.4987H4.81246V0.00256231H0.145508V33.0678C0.145188 36.7248 2.14105 38.7527 5.28332 40.0064L6.58379 40.5259L6.55496 41.9257C5.91434 69.0145 5.28108 96.103 4.64526 123.192C6.8362 126.776 9.08671 128.134 10.9605 128.125C12.8344 128.116 15.083 126.723 17.246 123.182C16.5045 96.1005 15.763 69.0184 15.0227 41.9366L14.9843 40.5272L16.2889 40.0128C19.5958 38.6976 21.7467 36.4657 21.7467 33.0697V0.00128177H17.451ZM76 12.4922C62.3227 12.4922 49.2056 17.9255 39.5343 27.5968C29.863 37.2681 24.4297 50.3852 24.4297 64.0625C24.4297 77.7398 29.863 90.8569 39.5343 100.528C49.2056 110.2 62.3227 115.633 76 115.633C89.6773 115.633 102.794 110.2 112.466 100.528C122.137 90.8569 127.57 77.7398 127.57 64.0625C127.57 50.3852 122.137 37.2681 112.466 27.5968C102.794 17.9255 89.6773 12.4922 76 12.4922Z" fill="#DD6022" fill-opacity="0.5"/>
</svg>
